<?xml version="1.0" encoding="utf-8"?>
<!-- Generator: Adobe Illustrator 18.0.0, SVG Export Plug-In . SVG Version: 6.00 Build 0)  -->
<!DOCTYPE svg PUBLIC "-//W3C//DTD SVG 1.1//EN" "http://www.w3.org/Graphics/SVG/1.1/DTD/svg11.dtd">
<svg version="1.1" id="Capa_1" xmlns="http://www.w3.org/2000/svg" xmlns:xlink="http://www.w3.org/1999/xlink" x="0px" y="0px"
	 viewBox="0 0 235 39" enable-background="new 0 0 235 39" xml:space="preserve">
<g>
	<path fill="#FFFFFF" d="M61,0c26,0,52,0,78,0c-0.1,7.5-2.5,10-10,10c-1.2,0-2.6-0.4-3.4,0.1c-1.4,0.8-3.2,2.1-3.4,3.5
		c-0.7,4.2-0.5,8.5-1.3,12.7c-0.8,4.7-0.4,10.2-5.9,12.7c-2.7,0-5.3,0-8,0c0.7-6.5,1.4-13,2-19.6c0.2-3,1.2-7.4-0.3-8.6
		c-2-1.6-5.9-0.8-9.1-0.8C87.8,10,76.1,10,64,10c0.1,2,0.2,3.3,0.3,5c7.3,0,14.3-0.1,21.3,0c5.1,0.1,9.5,2.9,9.3,6.8
		C94.4,28.2,95,35.2,88,39c-11,0-22,0-33,0c-2.1-2.8-4.2-5.5-6.3-8.3c0.3-0.5,0.6-0.9,1-1.4c1.6-0.1,3.1-0.2,4.7-0.3
		c8.2,0,16.3-0.1,24.5,0c3.2,0,3.6-1.3,2.6-4.1c-7.2,0-14.1,0.1-21.1,0c-6-0.1-9-3.6-9.5-9.4C50.3,7.6,53.5,2.5,61,0z"/>
	<path fill="#FFFFFF" d="M44,39c-4,0-8,0-12,0c0.4-4.5,0.8-9,1.2-13.8c-7,0-13.4,0-20.1,0c0.8,6.3-1.6,10.9-7,13.8c-2,0-4,0-6,0
		c0-2.3,0-4.7,0-7c0.7-5.1,2-10.2,1.8-15.2C1.5,8.7,3.6,2.6,12,0c12,0,24,0,36,0c-0.7,7.8-1.3,15.7-2,23.5
		C45.4,28.7,44.7,33.8,44,39z M33.8,10.1c-6.5,0-12.4,0-18.5,0c-0.3,1.4-0.6,2.7-1,4.5c6.8,0,13.1,0,19.6,0
		C33.8,13.1,33.8,11.8,33.8,10.1z"/>
	<path fill="#FFFFFF" d="M200,0c11.7,0,23.3,0,35,0c0,3.3,0,6.7,0,10c-0.7,5.1-1.7,10.2-1.9,15.3c-0.2,5.9-1.3,10.9-7.1,13.7
		c-10.7,0-21.3,0-32,0c-4.2-2.2-6.9-5.2-6-10.4c0.5-3,0.6-6.2,1-9.2C190.3,11.6,188.8,2.2,200,0z M222.1,10
		c-6.2,0-11.5-0.1-16.8,0.1c-1.1,0-3,1-3.1,1.7c-0.6,5.6-0.9,11.3-1.3,17.4c7,0,13.2,0,19.7,0C221.1,22.9,221.6,16.8,222.1,10z"/>
	<path fill="#FFFFFF" d="M145,39c-2,0-4,0-6,0c0.3-4.2,0.6-8.5,1-12.7c0.9-8.8,2-17.5,3-26.3c11.7,0,23.3,0,35,0
		c3.7,1.6,8.2,2.2,8.1,8c-0.2,7.1,0.7,14.6-9.1,16.8c2.8,5,5.4,9.6,8,14.2c-5,0-10,0-15,0c-3.3-5.8-6.6-11.6-10-17.5
		c4.4-4,6.1,2.9,10.4,2.1c-5.2-6-0.6-9.5,3.3-13.5c-2.8,0-5.5,0-8,0c-1-2.6-1.9-4.8-3.2-8.1c-1.3,3.4-2.1,5.6-3.1,8.2
		c-2.6,0-5.3,0-8.5,0c1.1,2.1,2.6,3.7,2.7,5.4c0.2,3.4-0.3,6.8-0.6,10.3C152.5,31.6,151,36.6,145,39z"/>
</g>
<g>
</g>
<g>
</g>
<g>
</g>
<g>
</g>
<g>
</g>
<g>
</g>
<g>
</g>
<g>
</g>
<g>
</g>
<g>
</g>
<g>
</g>
<g>
</g>
<g>
</g>
<g>
</g>
<g>
</g>
</svg>
