<?xml version="1.0" encoding="utf-8"?>
<!-- Generator: Adobe Illustrator 18.0.0, SVG Export Plug-In . SVG Version: 6.00 Build 0)  -->
<!DOCTYPE svg PUBLIC "-//W3C//DTD SVG 1.1//EN" "http://www.w3.org/Graphics/SVG/1.1/DTD/svg11.dtd">
<svg version="1.1" id="Capa_1" xmlns="http://www.w3.org/2000/svg" xmlns:xlink="http://www.w3.org/1999/xlink" x="0px" y="0px"
	 viewBox="0 0 59 59" enable-background="new 0 0 59 59" xml:space="preserve">
<g>
	<path fill="#ED1C24" d="M59,30.8C58.9,46.7,46.3,59.1,30.3,59C14.5,58.9,2,46.2,2.1,30.3C2.2,14.5,14.9,2,30.8,2.1
		C46.6,2.1,59.1,14.8,59,30.8z M4.6,30.5c0,14.4,11.6,26.1,25.9,26.2c14.2,0.1,26.1-11.8,26.2-26.1c0.1-14.3-11.7-26-26-26.1
		C16.1,4.5,4.6,16,4.6,30.5z"/>
	<path fill="#ED1C24" d="M27.4,30.7c-3.4-3.1-6-5-8-7.4c-0.9-1.2-0.7-3.3-0.9-5c1.6,0.3,3.7,0.1,4.7,1c2.4,2.2,4.4,5,7.4,8.6
		c3.1-3.7,5.2-6.5,7.7-8.9c0.9-0.8,2.8-0.5,4.3-0.7c-0.1,1.6,0.3,3.6-0.6,4.7c-2.1,2.6-4.7,4.7-8.1,7.9c2.9,2.6,5.7,4.7,7.9,7.2
		c0.9,1,0.6,3.1,0.9,4.7c-1.6-0.2-3.6,0.2-4.7-0.7c-2.5-2.1-4.5-4.8-7.5-8.2c-2.9,3.2-5,5.9-7.6,8.1c-1,0.9-3.1,0.5-4.6,0.8
		c0.2-1.6-0.1-3.7,0.8-4.7C21.4,35.6,24.1,33.6,27.4,30.7z"/>
</g>
<g>
</g>
<g>
</g>
<g>
</g>
<g>
</g>
<g>
</g>
<g>
</g>
<g>
</g>
<g>
</g>
<g>
</g>
<g>
</g>
<g>
</g>
<g>
</g>
<g>
</g>
<g>
</g>
<g>
</g>
</svg>
