<?xml version="1.0" encoding="utf-8"?>
<!-- Generator: Adobe Illustrator 18.0.0, SVG Export Plug-In . SVG Version: 6.00 Build 0)  -->
<!DOCTYPE svg PUBLIC "-//W3C//DTD SVG 1.1//EN" "http://www.w3.org/Graphics/SVG/1.1/DTD/svg11.dtd">
<svg version="1.1" id="Layer_1" xmlns="http://www.w3.org/2000/svg" xmlns:xlink="http://www.w3.org/1999/xlink" x="0px" y="0px"
	 viewBox="0 0 128 128" enable-background="new 0 0 128 128" xml:space="preserve">
<path fill="#FF6347" d="M68,8v8.1c3.4,0.1,7.4,0.7,11.8,2c4.9,1.4,8.9,3.8,12.1,7c3.2,3.3,4.8,6.7,4.8,10.2c0,3.1-1.2,5.8-3.5,8
	c-2.3,2.2-5,3.3-8.1,3.3c-2.8,0-5.1-0.8-7-2.5c-1.9-1.7-2.8-3.7-2.8-6.2c0-1.6,0.8-3.6,2.4-5.9c1.5-2.1,2.2-3.6,2.2-4.5
	c0-1.3-1.1-2.6-3.2-3.8c-2-1.1-4.9-1.7-8.6-1.8v33.5c11,4.2,18.8,8.1,23.2,11.8c5.9,5,8.8,10.8,8.8,17.4c0,7-2.9,13-8.6,18
	c-5.6,4.8-13.4,7.9-23.4,9.2v8.2h-8v-8h-1c-8.8,0-16.2-1.9-22.1-5.7c-5.9-3.8-8.9-8.8-8.9-15c0-3.6,1.2-6.5,3.5-8.7
	c2.3-2.2,5.2-3.2,8.6-3.2c3.3,0,6,0.9,8,2.7c2.1,1.8,3.1,4.1,3.1,6.9c0,3.8-1.8,6.7-5.2,8.8c-1.3,0.8-2.2,1.4-2.4,1.7
	s-0.4,0.8-0.4,1.2c0,1.2,1,2.3,3,3.2c2.8,1.3,7.1,2.1,12.9,2.3l1,0V71.6l-1-0.3c-9.4-3.6-15.8-6.6-19.1-9c-3.3-2.4-5.9-5.3-7.8-8.8
	c-1.9-3.5-2.8-7.3-2.8-11.5c0-6.8,2.7-12.6,8.1-17.5S50.1,16.8,59,16h1V8H68 M60,52.5V22l-1,0c-5.1,0.5-9.2,2.1-12.2,4.8
	c-3.1,2.7-4.6,5.8-4.6,9.3c0,6.5,5.6,11.9,16.8,16.1L60,52.5 M68,105.6c5.1-0.7,9.4-2.3,12.6-5c3.4-2.8,5.1-6,5.1-9.5
	c0-3.1-1.2-6-3.6-8.5c-2.3-2.4-7.1-5.2-14.1-8.3V105.6 M76,0h-8h-8h-8v8v1c-7.8,1.6-14.5,4.8-19.8,9.6C25,25,21.4,32.8,21.4,42
	c0,5.5,1.3,10.7,3.8,15.3c2.5,4.6,5.9,8.4,10.1,11.5c1.1,0.8,2.5,1.7,4.1,2.5c-5.2,0.2-9.8,2-13.4,5.4c-3.9,3.7-6,8.7-6,14.5
	c0,6.2,2.2,15.1,12.6,21.7c5.5,3.5,12,5.7,19.4,6.6v0.4v8h8h8h8v-8v-1.5c8.4-1.9,15.4-5.2,20.7-9.9c7.5-6.6,11.3-14.6,11.3-24
	c0-9-3.9-16.9-11.6-23.5c-2.6-2.2-6-4.4-10.3-6.6c4.7-0.2,9.1-2.1,12.6-5.5c3.9-3.7,5.9-8.5,5.9-13.8c0-5.6-2.4-10.9-7-15.7
	c-4.2-4.3-9.4-7.3-15.6-9.1C80,9.8,78,9.4,76,9V8V0L76,0z M76,94v-6.2c0.1,0.1,0.2,0.2,0.3,0.3c1.2,1.3,1.4,2.3,1.4,3
	C77.7,92,77.1,92.9,76,94L76,94z"/>
</svg>
