<?xml version="1.0" encoding="utf-8"?>
<!-- Generator: Adobe Illustrator 18.0.0, SVG Export Plug-In . SVG Version: 6.00 Build 0)  -->
<!DOCTYPE svg PUBLIC "-//W3C//DTD SVG 1.1//EN" "http://www.w3.org/Graphics/SVG/1.1/DTD/svg11.dtd">
<svg version="1.1" id="Capa_1" xmlns="http://www.w3.org/2000/svg" xmlns:xlink="http://www.w3.org/1999/xlink" x="0px" y="0px"
	 viewBox="0 0 87 88" enable-background="new 0 0 87 88" xml:space="preserve">
<g>
	<path fill="#FFFFFF" d="M53,89c-6,0-12,0-18,0c-0.5-0.3-1-0.8-1.5-1c-10.8-3.6-20.3-8.8-26.1-19.2C5.2,64.9,3.1,61,1,57
		c0-7.7,0-15.3,0-23c0.3-0.7,0.8-1.3,1-2c3.4-10.5,10.1-18.4,19-24.3C25.6,4.7,31,3.2,36,1c5.7,0,11.3,0,17,0
		c7,3.9,14.5,7,20.9,11.7C81.6,18.3,84.8,27.3,88,36c0,6.3,0,12.7,0,19c-0.3,0.7-0.8,1.3-1,2c-3.5,10.4-9.3,19.2-18.7,25
		C63.5,84.9,58.1,86.7,53,89z M9,44.7C8.4,66.3,25,81.1,44.6,80.9c19.2-0.2,35.6-15.5,35.2-35.8C79.4,23,64,9.2,43.9,9.4
		C25,9.6,8.9,23.1,9,44.7z"/>
	<path fill="#FFFFFF" d="M37.6,51.1c6.8-6.9,12.7-12.8,18.5-18.7c2.4-2.4,4.9-3.8,7.6-1.1c3,3,0.2,5.1-1.6,7
		C55.6,45,48.9,51.5,42.3,58.1c-2.9,3-5.8,3.2-8.7,0c-2.5-2.7-5.5-5-7.6-7.9c-1.2-1.6-0.9-4.3-1.2-6.5c2.4,0.2,5.2-0.2,7.1,0.9
		C34.1,45.9,35.4,48.5,37.6,51.1z"/>
</g>
<g>
</g>
<g>
</g>
<g>
</g>
<g>
</g>
<g>
</g>
<g>
</g>
<g>
</g>
<g>
</g>
<g>
</g>
<g>
</g>
<g>
</g>
<g>
</g>
<g>
</g>
<g>
</g>
<g>
</g>
</svg>
