<?xml version="1.0" encoding="utf-8"?>
<!-- Generator: Adobe Illustrator 18.0.0, SVG Export Plug-In . SVG Version: 6.00 Build 0)  -->
<!DOCTYPE svg PUBLIC "-//W3C//DTD SVG 1.1//EN" "http://www.w3.org/Graphics/SVG/1.1/DTD/svg11.dtd">
<svg version="1.1" id="Layer_1" xmlns="http://www.w3.org/2000/svg" xmlns:xlink="http://www.w3.org/1999/xlink" x="0px" y="0px"
	 viewBox="1.5 1.5 21 21" enable-background="new 1.5 1.5 21 21" xml:space="preserve">
<path fill="#FFFFFF" d="M22.2,4c0.3,0.3,0.3,0.8,0,1.1L16,11.4c-0.3,0.3-0.3,0.8,0,1.1l6.3,6.3c0.3,0.3,0.3,0.8,0,1.1L20,22.3
	c-0.3,0.3-0.8,0.3-1.1,0L12.5,16c-0.3-0.3-0.8-0.3-1.1,0l-6.3,6.3c-0.3,0.3-0.8,0.3-1.1,0L1.7,20c-0.3-0.3-0.3-0.8,0-1.1L8,12.6
	c0.3-0.3,0.3-0.8,0-1.1L1.7,5.1C1.4,4.8,1.4,4.3,1.7,4L4,1.7c0.3-0.3,0.8-0.3,1.1,0L11.4,8c0.3,0.3,0.8,0.3,1.1,0l6.3-6.3
	c0.3-0.3,0.8-0.3,1.1,0L22.2,4z"/>
</svg>
