<?xml version="1.0" encoding="utf-8"?>
<!-- Generator: Adobe Illustrator 18.0.0, SVG Export Plug-In . SVG Version: 6.00 Build 0)  -->
<!DOCTYPE svg PUBLIC "-//W3C//DTD SVG 1.1//EN" "http://www.w3.org/Graphics/SVG/1.1/DTD/svg11.dtd">
<svg version="1.1" id="Capa_1" xmlns="http://www.w3.org/2000/svg" xmlns:xlink="http://www.w3.org/1999/xlink" x="0px" y="0px"
	 viewBox="0 0 59 59" enable-background="new 0 0 59 59" xml:space="preserve">
<g>
	<path fill="#009245" d="M59,30.4c0,15.8-12.3,28.3-27.9,28.4C15.1,58.9,2.4,46.4,2.3,30.6C2.2,14.9,15.1,2.1,30.9,2.2
		C46.6,2.2,59,14.7,59,30.4z M31.4,4.3C17.4,3.8,5.1,15.2,4.7,29.2c-0.5,15,10.6,27.1,25.5,27.7C44,57.4,56.4,45.7,57.1,31.4
		C57.7,17.3,45.9,4.8,31.4,4.3z"/>
	<path fill="#009245" d="M26.4,37.8c5.4-6.3,10.3-12.3,15.6-18.1c1.2-1.3,3.5-1.4,5.2-2.1c-0.4,1.9-0.3,4.2-1.4,5.5
		c-4.9,6.2-10.3,12.2-15.3,18.3c-2.4,2.9-4.6,3.4-7.5,0.8c-2.7-2.5-5.7-4.6-8.2-7.2c-0.8-0.8-0.7-2.5-1-3.8c1.5-0.1,3.3-0.7,4.3-0.1
		C20.9,32.9,23.3,35.2,26.4,37.8z"/>
</g>
<g>
</g>
<g>
</g>
<g>
</g>
<g>
</g>
<g>
</g>
<g>
</g>
<g>
</g>
<g>
</g>
<g>
</g>
<g>
</g>
<g>
</g>
<g>
</g>
<g>
</g>
<g>
</g>
<g>
</g>
</svg>
