<?xml version="1.0" encoding="utf-8"?>
<!-- Generator: Adobe Illustrator 18.0.0, SVG Export Plug-In . SVG Version: 6.00 Build 0)  -->
<!DOCTYPE svg PUBLIC "-//W3C//DTD SVG 1.1//EN" "http://www.w3.org/Graphics/SVG/1.1/DTD/svg11.dtd">
<svg version="1.1" id="Layer_1" xmlns="http://www.w3.org/2000/svg" xmlns:xlink="http://www.w3.org/1999/xlink" x="0px" y="0px"
	 viewBox="0 0 128 128" enable-background="new 0 0 128 128" xml:space="preserve">
<g>
	<g>
		<path fill="#FF6347" d="M100,16h-8c0-8.8-7.2-16-16-16H52c-8.8,0-16,7.2-16,16h-8c-8.8,0-16,7.2-16,16v16l16.2,73.7
			c0.8,3.7,4.1,6.3,7.8,6.3h56c3.8,0,7-2.6,7.8-6.3L116,48V32C116,23.2,108.8,16,100,16z M92,120H36L20,48h88L92,120z M108,40H20v-8
			c0-4.4,3.6-8,8-8h16v-8c0-4.4,3.6-8,8-8h24c4.4,0,8,3.6,8,8v8h16c4.4,0,8,3.6,8,8V40z M52,24h24v-8H52V24z"/>
	</g>
</g>
</svg>
