<?xml version="1.0" encoding="utf-8"?>
<!-- Generator: Adobe Illustrator 18.0.0, SVG Export Plug-In . SVG Version: 6.00 Build 0)  -->
<!DOCTYPE svg PUBLIC "-//W3C//DTD SVG 1.1//EN" "http://www.w3.org/Graphics/SVG/1.1/DTD/svg11.dtd">
<svg version="1.1" id="Layer_1" xmlns="http://www.w3.org/2000/svg" xmlns:xlink="http://www.w3.org/1999/xlink" x="0px" y="0px"
	 viewBox="0 0 128 128" enable-background="new 0 0 128 128" xml:space="preserve">
<path fill="#FF6347" d="M123.3,16L112,4.7c-3.1-3.1-7.2-4.7-11.3-4.7s-8.2,1.6-11.3,4.7L20.7,73.4C17.6,76.5,8,88.6,8,92.7L0,128
	l35.3-8c0,0,16.2-9.6,19.3-12.7l68.7-68.7C129.6,32.4,129.6,22.2,123.3,16z M10.6,117.4l5.2-23c0.1-0.3,0.1-0.7,0.2-1
	c0,0,0.1-0.1,0.1-0.2l18.1,18.1c-0.6,0.4-1.2,0.7-1.8,1.1L10.6,117.4z M49,101.6c-0.9,0.9-4,3-7.9,5.4L20.4,86.3
	c2.1-2.9,4.5-5.8,5.9-7.3l51.7-51.7l22.6,22.6L49,101.6z M117.7,33l-11.3,11.3L83.7,21.7L95,10.3c1.5-1.5,3.5-2.3,5.7-2.3
	s4.1,0.8,5.7,2.3l11.3,11.3c1.5,1.5,2.3,3.5,2.3,5.7C120,29.4,119.2,31.5,117.7,33z"/>
</svg>
