<?xml version="1.0" encoding="utf-8"?>
<!-- Generator: Adobe Illustrator 18.0.0, SVG Export Plug-In . SVG Version: 6.00 Build 0)  -->
<!DOCTYPE svg PUBLIC "-//W3C//DTD SVG 1.1//EN" "http://www.w3.org/Graphics/SVG/1.1/DTD/svg11.dtd">
<svg version="1.1" id="Capa_1" xmlns="http://www.w3.org/2000/svg" xmlns:xlink="http://www.w3.org/1999/xlink" x="0px" y="0px"
	 viewBox="79.3 79.3 867.3 867.4" enable-background="new 79.3 79.3 867.3 867.4" xml:space="preserve">
<g>
	<title></title>
	<rect id="canvas_background" x="-1" y="-1" fill="none" width="1026" height="1026"/>
</g>
<g>
	<title></title>
	<g id="svg_1" transform="translate(0,1024) scale(0.10000000149011612,-0.10000000149011612) ">
		<path id="svg_2" fill="#3B5998" d="M4869,9439c-559-33-1115-178-1618-420C2030,8431,1149,7300,880,5975c-189-929-67-1900,344-2750
			c589-1219,1718-2097,3041-2365c929-189,1900-67,2750,344c878,424,1597,1143,2021,2021c202,418,335,865,394,1324
			c109,840-28,1690-394,2446c-424,878-1143,1597-2021,2021C6350,9338,5608,9484,4869,9439z M6638,7078l-3-473l-460-5
			c-520-6-488,0-544-88c-57-91-61-122-61-494v-338h535h535v-445v-445h-535h-535V3460V2130h-515h-515v1330v1330h-460h-460v445v445
			h460h460v321c0,349,10,457,56,616c126,434,462,783,857,888c144,39,206,42,715,44l472,1L6638,7078z"/>
	</g>
</g>
</svg>
