<?xml version="1.0" encoding="utf-8"?>
<!-- Generator: Adobe Illustrator 18.0.0, SVG Export Plug-In . SVG Version: 6.00 Build 0)  -->
<!DOCTYPE svg PUBLIC "-//W3C//DTD SVG 1.1//EN" "http://www.w3.org/Graphics/SVG/1.1/DTD/svg11.dtd">
<svg version="1.1" id="Layer_1" xmlns="http://www.w3.org/2000/svg" xmlns:xlink="http://www.w3.org/1999/xlink" x="0px" y="0px"
	 viewBox="0 0 400 400" enable-background="new 0 0 400 400" xml:space="preserve">
<path fill="#777777" d="M212.5,25v25.3c10.6,0.3,23.1,2.2,36.9,6.3c15.3,4.4,27.8,11.9,37.8,21.9c10,10.3,15,20.9,15,31.9
	c0,9.7-3.7,18.1-10.9,25c-7.2,6.9-15.6,10.3-25.3,10.3c-8.8,0-15.9-2.5-21.9-7.8c-5.9-5.3-8.8-11.6-8.8-19.4c0-5,2.5-11.2,7.5-18.4
	c4.7-6.6,6.9-11.3,6.9-14.1c0-4.1-3.4-8.1-10-11.9c-6.3-3.4-15.3-5.3-26.9-5.6v104.7c34.4,13.1,58.8,25.3,72.5,36.9
	c18.4,15.6,27.5,33.8,27.5,54.4c0,21.9-9.1,40.6-26.9,56.3c-17.5,15-41.9,24.7-73.1,28.7V375h-25v-25h-3.1
	c-27.5,0-50.6-5.9-69.1-17.8s-27.8-27.5-27.8-46.9c0-11.3,3.8-20.3,10.9-27.2c7.2-6.9,16.3-10,26.9-10c10.3,0,18.8,2.8,25,8.4
	c6.6,5.6,9.7,12.8,9.7,21.6c0,11.9-5.6,20.9-16.3,27.5c-4.1,2.5-6.9,4.4-7.5,5.3c-0.6,0.9-1.3,2.5-1.3,3.7c0,3.8,3.1,7.2,9.4,10
	c8.7,4.1,22.2,6.6,40.3,7.2h3.1V223.8l-3.1-0.9c-29.4-11.3-49.4-20.6-59.7-28.1s-18.4-16.6-24.4-27.5c-5.9-10.9-8.8-22.8-8.8-35.9
	c0-21.2,8.4-39.4,25.3-54.7s39.1-24.1,66.9-26.6h3.1V25H212.5 M187.5,164.1V68.8h-3.1c-15.9,1.6-28.8,6.6-38.1,15
	c-9.7,8.4-14.4,18.1-14.4,29.1c0,20.3,17.5,37.2,52.5,50.3L187.5,164.1 M212.5,330c15.9-2.2,29.4-7.2,39.4-15.6
	c10.6-8.8,15.9-18.8,15.9-29.7c0-9.7-3.8-18.8-11.3-26.6c-7.2-7.5-22.2-16.3-44.1-25.9V330 M237.5,0h-25h-25h-25v25v3.1
	c-24.4,5-45.3,15-61.9,30c-22.5,20-33.8,44.4-33.8,73.1c0,17.2,4.1,33.4,11.9,47.8s18.4,26.2,31.6,35.9c3.4,2.5,7.8,5.3,12.8,7.8
	c-16.3,0.6-30.6,6.3-41.9,16.9c-12.2,11.6-18.8,27.2-18.8,45.3c0,19.4,6.9,47.2,39.4,67.8c17.2,10.9,37.5,17.8,60.6,20.6v1.3v25h25
	h25h25v-25V370c26.3-5.9,48.1-16.3,64.7-30.9c23.4-20.6,35.3-45.6,35.3-75c0-28.1-12.2-52.8-36.3-73.4c-8.1-6.9-18.8-13.8-32.2-20.6
	c14.7-0.6,28.4-6.6,39.4-17.2c12.2-11.6,18.4-26.6,18.4-43.1c0-17.5-7.5-34.1-21.9-49.1c-13.1-13.4-29.4-22.8-48.8-28.4
	c-6.3-1.6-12.5-2.8-18.8-4.1V25V0L237.5,0z M237.5,293.8v-19.4c0.3,0.3,0.6,0.6,0.9,0.9c3.7,4.1,4.4,7.2,4.4,9.4
	C242.8,287.5,240.9,290.3,237.5,293.8L237.5,293.8z"/>
</svg>
