<?xml version="1.0" encoding="utf-8"?>
<!-- Generator: Adobe Illustrator 18.0.0, SVG Export Plug-In . SVG Version: 6.00 Build 0)  -->
<!DOCTYPE svg PUBLIC "-//W3C//DTD SVG 1.1//EN" "http://www.w3.org/Graphics/SVG/1.1/DTD/svg11.dtd">
<svg version="1.1" id="Layer_1" xmlns="http://www.w3.org/2000/svg" xmlns:xlink="http://www.w3.org/1999/xlink" x="0px" y="0px"
	 viewBox="0 0 400 400" enable-background="new 0 0 400 400" xml:space="preserve">
<path fill="#777777" d="M385.3,50L350,14.7C340.3,5,327.5,0,314.7,0c-12.8,0-25.6,5-35.3,14.7L64.7,229.4
	C55,239.1,25,276.9,25,289.7L0,400l110.3-25c0,0,50.6-30,60.3-39.7l214.7-214.7C405,101.3,405,69.4,385.3,50z M33.1,366.9L49.4,295
	c0.3-0.9,0.3-2.2,0.6-3.1c0,0,0.3-0.3,0.3-0.6l56.6,56.6c-1.9,1.3-3.8,2.2-5.6,3.4L33.1,366.9z M153.1,317.5
	c-2.8,2.8-12.5,9.4-24.7,16.9l-64.7-64.7c6.6-9.1,14.1-18.1,18.4-22.8L243.8,85.3l70.6,70.6L153.1,317.5z M367.8,103.1l-35.3,35.3
	l-70.9-70.6l35.3-35.6c4.7-4.7,10.9-7.2,17.8-7.2c6.9,0,12.8,2.5,17.8,7.2l35.3,35.3c4.7,4.7,7.2,10.9,7.2,17.8
	C375,91.9,372.5,98.4,367.8,103.1z"/>
</svg>
