<?xml version="1.0" encoding="utf-8"?>
<!-- Generator: Adobe Illustrator 18.0.0, SVG Export Plug-In . SVG Version: 6.00 Build 0)  -->
<!DOCTYPE svg PUBLIC "-//W3C//DTD SVG 1.1//EN" "http://www.w3.org/Graphics/SVG/1.1/DTD/svg11.dtd">
<svg version="1.1" id="Capa_1" xmlns="http://www.w3.org/2000/svg" xmlns:xlink="http://www.w3.org/1999/xlink" x="0px" y="0px"
	 viewBox="0 0 87 88" enable-background="new 0 0 87 88" xml:space="preserve">
<g>
	<path fill="#FFFFFF" d="M52,88c-6,0-12,0-18,0c-0.5-0.3-1-0.8-1.5-1c-10.8-3.6-20.3-8.8-26.1-19.2C4.2,63.9,2.1,60,0,56
		c0-7.7,0-15.3,0-23c0.3-0.7,0.8-1.3,1-2c3.4-10.5,10.1-18.4,19-24.3C24.6,3.7,30,2.2,35,0c5.7,0,11.3,0,17,0
		c7,3.9,14.5,7,20.9,11.7C80.6,17.3,83.8,26.3,87,35c0,6.3,0,12.7,0,19c-0.3,0.7-0.8,1.3-1,2c-3.5,10.4-9.3,19.2-18.7,25
		C62.5,83.9,57.1,85.7,52,88z M8,43.7C7.4,65.3,24.1,80.1,43.6,79.9C62.8,79.7,79.3,64.4,78.9,44c-0.4-22.1-16-35.8-35.9-35.6
		C24,8.6,7.9,22.2,8,43.7z"/>
	<path fill="#FFFFFF" d="M30.3,55.9c3.6-7.5,6.9-1.6,10.4-0.7c0-3.1,0.3-5.6-0.1-8c-0.2-1.3-1.2-3.1-2.3-3.7
		c-3.9-2.1-6.8-4.6-6.6-9.5c0.2-5,2.8-8.1,7.2-10.2c1.3-0.6,2-2.3,3.5-4.1c0.8,0.4,2.3,0.8,3.6,1.6c1.7,1,3.4,2.1,4.8,3.5
		c1.3,1.4,3.3,3.7,2.9,4.7c-1.1,2.6-3.5,2.6-5.6,0.5c-0.3-0.3-0.9-0.4-1.3-0.5c-2,6.7-1.4,8.4,4.1,12.3c6.9,4.9,5.8,13.9-1.3,18.4
		c-4.4,2.8-7.5,5.3-11.9,0.2C35.9,58.6,32.9,57.6,30.3,55.9z M40.4,37.8c0-3.1,0-5.4,0-8.3C36.7,32.4,36.7,34.7,40.4,37.8z
		 M45.8,46.3c0.2,3.6,0.3,6,0.5,9.4C49.8,52.1,50.3,49.7,45.8,46.3z"/>
</g>
<g>
</g>
<g>
</g>
<g>
</g>
<g>
</g>
<g>
</g>
<g>
</g>
<g>
</g>
<g>
</g>
<g>
</g>
<g>
</g>
<g>
</g>
<g>
</g>
<g>
</g>
<g>
</g>
<g>
</g>
</svg>
