<?xml version="1.0" encoding="utf-8"?>
<!-- Generator: Adobe Illustrator 18.0.0, SVG Export Plug-In . SVG Version: 6.00 Build 0)  -->
<!DOCTYPE svg PUBLIC "-//W3C//DTD SVG 1.1//EN" "http://www.w3.org/Graphics/SVG/1.1/DTD/svg11.dtd">
<svg version="1.1" id="Capa_1" xmlns="http://www.w3.org/2000/svg" xmlns:xlink="http://www.w3.org/1999/xlink" x="0px" y="0px"
	 viewBox="0 0 87 88" enable-background="new 0 0 87 88" xml:space="preserve">
<g>
	<path fill="#FFFFFF" d="M87,35c0,6.3,0,12.7,0,19c-0.3,0.7-0.8,1.3-1,2c-3.5,10.4-9.3,19.2-18.7,25c-4.7,2.9-10.2,4.7-15.3,7
		c-6,0-12,0-18,0c-0.5-0.3-1-0.8-1.5-1c-10.8-3.6-20.3-8.8-26.1-19.2C4.2,63.9,2.1,60,0,56c0-7.7,0-15.3,0-23c0.3-0.7,0.8-1.3,1-2
		c3.4-10.5,10.1-18.4,19-24.3C24.6,3.7,30,2.2,35,0c5.7,0,11.3,0,17,0c7,3.9,14.5,7.1,20.9,11.7C80.6,17.3,83.7,26.4,87,35z M79,44
		C77.9,21.7,62.5,8.1,42.9,8.4C23.4,8.8,9.1,22.1,8,41.8C6.6,65.7,24.6,80.1,43.7,79.9C62.9,79.6,78.8,64.4,79,44z"/>
	<path fill="#FFFFFF" d="M22,64.6c0-10.9-0.2-21.5,0.1-32.1C22.2,26.2,26,23,32.2,23c6.8,0,13.6,0,20.5,0C59.8,23,64,27.1,64,34.3
		c0,10,0,19.9,0,30.3C50.1,64.6,36.4,64.6,22,64.6z M26.2,60.6c11.5,0,22.5,0,33.5,0c0-8.6,0-16.9,0-25.3c-11.3,0-22.3,0-33.5,0
		C26.2,43.8,26.2,52.1,26.2,60.6z M40.7,26.4c-4.7,2.1-10.5-2.6-13.2,4.4c4.2,0,8.2,0,12.1,0C39.9,29.6,40.2,28.5,40.7,26.4z
		 M45.3,26.5c0.1,5,1.5,5.4,12.4,4C55,24,49.6,28.4,45.3,26.5z"/>
	<path fill="#FFFFFF" d="M43.2,39c2,0,4-0.3,5.9,0.1c1.1,0.2,2.4,1.6,2.7,2.6c0.2,0.7-1.2,2.6-1.9,2.7c-4.7,0.3-9.5,0.5-14.3,0.2
		c-0.9,0-1.7-2.1-2.6-3.2c1.1-0.8,2.1-2.1,3.3-2.3C38.6,38.8,40.9,39,43.2,39C43.2,39,43.2,39,43.2,39z"/>
</g>
<g>
</g>
<g>
</g>
<g>
</g>
<g>
</g>
<g>
</g>
<g>
</g>
<g>
</g>
<g>
</g>
<g>
</g>
<g>
</g>
<g>
</g>
<g>
</g>
<g>
</g>
<g>
</g>
<g>
</g>
</svg>
