<?xml version="1.0" encoding="utf-8"?>
<!-- Generator: Adobe Illustrator 18.0.0, SVG Export Plug-In . SVG Version: 6.00 Build 0)  -->
<!DOCTYPE svg PUBLIC "-//W3C//DTD SVG 1.1//EN" "http://www.w3.org/Graphics/SVG/1.1/DTD/svg11.dtd">
<svg version="1.1" id="Capa_1" xmlns="http://www.w3.org/2000/svg" xmlns:xlink="http://www.w3.org/1999/xlink" x="0px" y="0px"
	 viewBox="0 0 24 32" enable-background="new 0 0 24 32" xml:space="preserve">
<g>
	<g>
		<path fill="#9A9A9A" d="M12,18c-3.6,0-6.5-2.9-6.5-6.5v-5C5.5,2.9,8.4,0,12,0c3.6,0,6.5,2.9,6.5,6.5v5C18.5,15.1,15.6,18,12,18z
			 M12,2C9.5,2,7.4,4,7.4,6.5v5C7.4,14,9.5,16,12,16c2.5,0,4.6-2,4.6-4.5v-5C16.6,4,14.5,2,12,2z"/>
	</g>
	<g>
		<g>
			<path fill="#9A9A9A" d="M19.8,32H4.2c-1.3,0-2.5-0.5-3.3-1.5c-0.8-1-1.1-2.3-0.9-3.6l1.2-7.1c0.1-0.5,0.6-0.9,1.1-0.8
				c0.5,0.1,0.9,0.6,0.8,1.2L2,27.2c-0.1,0.8,0,1.4,0.4,2C2.8,29.7,3.5,30,4.2,30h15.5c0.7,0,1.4-0.3,1.8-0.8c0.4-0.5,0.6-1.2,0.4-2
				l-1.2-7.1c-0.1-0.5,0.3-1.1,0.8-1.2c0.5-0.1,1,0.3,1.1,0.8l1.2,7.1c0.2,1.3-0.1,2.6-0.9,3.6C22.3,31.5,21.1,32,19.8,32z"/>
		</g>
	</g>
	<g>
		<path fill="#9A9A9A" d="M2.3,21c-0.4,0-0.7-0.2-0.9-0.6c-0.2-0.5,0-1.1,0.4-1.3l6.7-3.4c0.5-0.2,1.1,0,1.3,0.4
			c0.2,0.5,0,1.1-0.4,1.3l-6.7,3.4C2.6,21,2.4,21,2.3,21z"/>
	</g>
	<g>
		<path fill="#9A9A9A" d="M21.7,21c-0.1,0-0.3,0-0.4-0.1l-6.7-3.4c-0.5-0.2-0.7-0.8-0.4-1.3c0.2-0.5,0.8-0.7,1.3-0.4l6.7,3.4
			c0.5,0.2,0.7,0.8,0.4,1.3C22.4,20.8,22,21,21.7,21z"/>
	</g>
</g>
<g>
</g>
<g>
</g>
<g>
</g>
<g>
</g>
<g>
</g>
<g>
</g>
<g>
</g>
<g>
</g>
<g>
</g>
<g>
</g>
<g>
</g>
<g>
</g>
<g>
</g>
<g>
</g>
<g>
</g>
</svg>
