<?xml version="1.0" encoding="utf-8"?>
<!-- Generator: Adobe Illustrator 18.0.0, SVG Export Plug-In . SVG Version: 6.00 Build 0)  -->
<!DOCTYPE svg PUBLIC "-//W3C//DTD SVG 1.1//EN" "http://www.w3.org/Graphics/SVG/1.1/DTD/svg11.dtd">
<svg version="1.1" id="Capa_1" xmlns="http://www.w3.org/2000/svg" xmlns:xlink="http://www.w3.org/1999/xlink" x="0px" y="0px"
	 viewBox="0 0 87 88" enable-background="new 0 0 87 88" xml:space="preserve">
<g>
	<path fill="#FFFFFF" d="M88,36c0,6.3,0,12.7,0,19c-0.3,0.7-0.8,1.3-1,2c-3.5,10.4-9.3,19.2-18.7,25c-4.7,2.9-10.2,4.7-15.3,7
		c-6,0-12,0-18,0c-0.5-0.3-1-0.8-1.5-1c-10.8-3.6-20.3-8.8-26.1-19.2C5.2,64.9,3.1,61,1,57c0-7.7,0-15.3,0-23c0.3-0.7,0.8-1.3,1-2
		c3.4-10.5,10.1-18.4,19-24.3C25.6,4.7,31,3.2,36,1c5.7,0,11.3,0,17,0c7,3.9,14.5,7,20.9,11.7C81.6,18.3,84.8,27.3,88,36z M80,45.1
		C79,23.2,64.1,9.2,44,9.4C24.7,9.7,10.4,22.5,9,42.2C7.3,66.9,25.7,81.1,44.6,80.9C63.8,80.7,79.7,65.4,80,45.1z"/>
	<path fill="#FFFFFF" d="M52,48.9c0,10.2,0,20,0,29.3c-5.4,0-10.4,0-15.8,0c0-9.2,0-19,0-29.2c-5.6,1.7-6.8-0.9-6.1-5.3
		c0.7-4.1,0.6-8.6,2.4-12.3c2.6-5.5,10.5-8.3,16.1-6.1c5.2,2,10.6,5.8,9.6,13.2c-0.2,1.6-0.2,3.3,0,5C58.4,47.7,57.8,50.8,52,48.9z"
		/>
	<path fill="#FFFFFF" d="M44.4,12c4.2-0.4,5.8,1.7,5.7,5.9c-0.1,4.4-3.1,6.5-6.3,5.8c-2.6-0.6-5.4-3.5-6.5-6.1
		C36.1,14.8,40,12,44.4,12z"/>
</g>
<g>
</g>
<g>
</g>
<g>
</g>
<g>
</g>
<g>
</g>
<g>
</g>
<g>
</g>
<g>
</g>
<g>
</g>
<g>
</g>
<g>
</g>
<g>
</g>
<g>
</g>
<g>
</g>
<g>
</g>
</svg>
