<?xml version="1.0" encoding="utf-8"?>
<!-- Generator: Adobe Illustrator 18.0.0, SVG Export Plug-In . SVG Version: 6.00 Build 0)  -->
<!DOCTYPE svg PUBLIC "-//W3C//DTD SVG 1.1//EN" "http://www.w3.org/Graphics/SVG/1.1/DTD/svg11.dtd">
<svg version="1.1" id="Capa_1" xmlns="http://www.w3.org/2000/svg" xmlns:xlink="http://www.w3.org/1999/xlink" x="0px" y="0px"
	 viewBox="79.1 79.1 867.7 867.7" enable-background="new 79.1 79.1 867.7 867.7" xml:space="preserve">
<g>
	<title></title>
	<rect id="canvas_background" x="-1" y="-1" fill="none" width="1026" height="1026"/>
</g>
<g>
	<title></title>
	<g id="svg_1" transform="translate(0,1024) scale(0.10000000149011612,-0.10000000149011612) ">
		<path id="svg_2" fill="#BB0000" d="M4835,9439c-1435-96-2744-913-3464-2163c-516-893-697-1957-505-2966
			c236-1248,1002-2327,2098-2959c893-516,1957-697,2966-505c692,131,1330,420,1880,853c829,652,1388,1573,1584,2611
			c99,518,99,1082,0,1600c-236,1248-1002,2327-2098,2959C6554,9297,5694,9496,4835,9439z M3969,7818c63-233,117-429,120-436
			c4-6,54,169,111,390c57,222,107,418,112,436l9,32h171h170l-7-27c-3-16-94-316-201-668l-194-641v-457v-457h-170h-170v463v462
			l-40,157c-40,157-149,495-299,926c-45,128-81,235-81,238c0,2,80,4,178,4h178L3969,7818z M5277,7659c76-26,138-72,189-141
			c91-124,109-271,101-793c-6-367-14-432-63-533c-58-119-186-207-321-220c-157-16-272,18-368,109c-68,65-110,146-131,257
			c-22,117-16,950,8,1027c52,170,182,291,341,315C5103,7691,5212,7682,5277,7659z M6120,6995c0-564,2-681,14-710
			c29-68,106-55,192,32l54,55l2,647l3,646l153,3l152,3v-841v-840h-155h-155v87v86l-57-55c-107-102-185-139-289-139
			c-108,0-167,42-201,144c-15,47-17,123-21,791c-2,406-1,745,2,752c4,11,37,14,156,14h150V6995z M6300,5670c410-17,716-40,815-61
			c28-6,88-29,135-51c69-33,100-56,166-123c148-149,194-296,235-755c29-336,27-1165-6-1500c-41-435-82-559-234-710
			c-139-138-220-169-511-194c-498-44-1096-60-1985-53c-1019,9-1580,42-1739,101c-165,63-305,201-365,362c-76,201-112,611-112,1264
			c0,546,20,846,72,1117c24,126,46,183,106,275c75,115,180,197,310,245c128,46,643,83,1373,97C4857,5690,6060,5680,6300,5670z"/>
		<path id="svg_3" fill="#BB0000" d="M5044,7391c-18-11-39-37-50-62c-18-41-19-77-22-472c-3-480,1-527,58-579c67-62,156-41,200,47
			l25,50v455v455l-24,48c-13,28-35,54-52,62C5140,7416,5081,7414,5044,7391z"/>
		<path id="svg_4" fill="#BB0000" d="M3070,4945v-155h175h175v-955v-955h170h170v955v955h180h180v155v155h-525h-525V4945z"/>
		<path id="svg_5" fill="#BB0000" d="M5290,3990V2880h145h145v75c0,41,3,75,6,75c4,0,37-29,74-64c81-76,149-106,243-106
			c138,1,219,83,246,250c14,87,14,1103,0,1189c-30,187-143,282-303,252c-76-14-125-41-201-112l-65-61v361v361h-145h-145V3990z
			 M5802,4267c10-7,29-32,41-57c22-44,22-54,25-472c4-484-1-528-60-582c-28-25-36-28-85-24c-38,3-66,13-96,34l-42,30l-3,506l-2,507
			l35,28C5679,4288,5749,4299,5802,4267z"/>
		<path id="svg_6" fill="#BB0000" d="M6762,4549c-111-19-220-92-281-187c-17-27-41-84-53-128c-21-76-22-96-23-519
			c0-310,4-455,12-491c25-104,54-164,109-224c94-101,187-140,333-140c147,0,234,34,317,122c93,98,124,189,124,360v108h-149h-148
			l-7-106c-11-165-42-214-138-214c-65,0-103,23-131,80c-20,41-22,62-25,243l-4,197h301h301v221c0,311-20,417-100,525
			C7110,4516,6930,4579,6762,4549z M6930,4261c54-39,65-75,68-223l4-138h-151h-151v105c0,127,14,196,47,235
			C6790,4291,6875,4301,6930,4261z"/>
		<path id="svg_7" fill="#BB0000" d="M4160,3843c0-390,5-731,10-773c20-156,82-214,220-208c95,4,166,38,260,125c37,35,71,63,74,63
			s6-38,6-85v-85h145h145v830v830h-145h-145v-636v-635l-52-56c-29-30-65-61-80-69c-29-15-86-18-105-6c-31,19-33,70-33,733v669h-150
			h-150V3843z"/>
	</g>
</g>
</svg>
