<?xml version="1.0" encoding="utf-8"?>
<!-- Generator: Adobe Illustrator 18.0.0, SVG Export Plug-In . SVG Version: 6.00 Build 0)  -->
<!DOCTYPE svg PUBLIC "-//W3C//DTD SVG 1.1//EN" "http://www.w3.org/Graphics/SVG/1.1/DTD/svg11.dtd">
<svg version="1.1" id="Layer_1" xmlns="http://www.w3.org/2000/svg" xmlns:xlink="http://www.w3.org/1999/xlink" x="0px" y="0px"
	 viewBox="0 0 128 128" enable-background="new 0 0 128 128" xml:space="preserve">
<g>
	<g>
		<path fill="#FFFFFF" d="M123.3,100.7l-25-25c3.6-7.1,5.7-15.1,5.7-23.6c0-28.7-23.3-52-52-52C23.3,0,0,23.3,0,52s23.3,52,52,52
			c8.5,0,16.5-2.1,23.6-5.7l25,25c3.1,3.1,7.2,4.7,11.3,4.7s8.2-1.6,11.3-4.7C129.6,117.1,129.6,106.9,123.3,100.7z M117.7,117.7
			c-1.5,1.5-3.5,2.3-5.7,2.3s-4.1-0.8-5.7-2.3L77.2,88.5L72,91.1C65.7,94.4,59,96,52,96C27.7,96,8,76.3,8,52S27.7,8,52,8
			s44,19.7,44,44c0,7-1.6,13.7-4.8,20l-2.7,5.2l4.1,4.1l25,25c1.5,1.5,2.3,3.5,2.3,5.7C120,114.1,119.2,116.1,117.7,117.7z"/>
	</g>
</g>
<path fill="#D4F4FF" d="M52,24c15.4,0,28,12.6,28,28S67.4,80,52,80S24,67.4,24,52S36.6,24,52,24 M52,16c-19.9,0-36,16.1-36,36
	c0,19.9,16.1,36,36,36s36-16.1,36-36C88,32.1,71.9,16,52,16L52,16z"/>
</svg>
