<?xml version="1.0" encoding="utf-8"?>
<!-- Generator: Adobe Illustrator 18.0.0, SVG Export Plug-In . SVG Version: 6.00 Build 0)  -->
<!DOCTYPE svg PUBLIC "-//W3C//DTD SVG 1.1//EN" "http://www.w3.org/Graphics/SVG/1.1/DTD/svg11.dtd">
<svg version="1.1" id="Capa_1" xmlns="http://www.w3.org/2000/svg" xmlns:xlink="http://www.w3.org/1999/xlink" x="0px" y="0px"
	 viewBox="79.1 79 867.9 867.9" enable-background="new 79.1 79 867.9 867.9" xml:space="preserve">
<g>
	<title></title>
	<rect id="canvas_background" x="-1" y="-1" fill="none" width="1026" height="1026"/>
</g>
<g>
	<title></title>
	<g id="svg_1" transform="translate(0,1024) scale(0.10000000149011612,-0.10000000149011612) ">
		<path id="svg_2" fill="#517FA4" d="M4820,9439c-1036-77-1981-503-2723-1228C1121,7259,653,5911,826,4557
			c216-1693,1410-3103,3050-3602c1268-386,2679-157,3754,608c1321,941,2008,2502,1804,4100c-216,1693-1410,3103-3050,3602
			C5896,9414,5327,9477,4820,9439z M7130,7462c306-95,531-344,579-642c7-39,11-257,11-542v-478h-659h-659l-77,95
			c-365,450-900,639-1510,535c-293-50-544-179-751-385c-55-55-124-133-153-172l-54-73h-659h-659l3,523l3,522l28,80
			c77,227,256,420,470,507c145,59,54,57,2117,55l1895-2L7130,7462z M5322,5846c351-69,654-352,742-691c109-425-62-844-445-1088
			c-222-141-535-176-796-87c-305,104-548,367-635,689c-31,112-31,342,0,464c88,353,385,639,742,712C5018,5863,5231,5863,5322,5846z
			 M3583,5128c-4-40-8-156-7-258c1-271,38-432,154-665c186-375,554-687,948-804c166-49,298-64,507-58c197,6,270,18,435,73
			c210,70,399,187,578,359c256,245,410,522,469,845c23,125,23,415,1,513l-16,67h534h534V4121c0-1181,1-1155-59-1306
			c-99-246-342-449-596-497c-104-19-3792-19-3880,0c-163,37-300,117-422,246c-84,89-131,160-170,256c-53,133-53,125-53,1296v1084
			h526h525L3583,5128z"/>
		<path id="svg_3" fill="#517FA4" d="M6643,7044c-58-29-63-53-63-334c0-277,2-288,63-334l34-26h262c288,0,307,3,336,60
			c23,44,22,537-1,585c-28,61-51,65-341,65C6719,7060,6670,7057,6643,7044z"/>
	</g>
</g>
</svg>
