<?xml version="1.0" encoding="utf-8"?>
<!-- Generator: Adobe Illustrator 18.0.0, SVG Export Plug-In . SVG Version: 6.00 Build 0)  -->
<!DOCTYPE svg PUBLIC "-//W3C//DTD SVG 1.1//EN" "http://www.w3.org/Graphics/SVG/1.1/DTD/svg11.dtd">
<svg version="1.1" id="Layer_1" xmlns="http://www.w3.org/2000/svg" xmlns:xlink="http://www.w3.org/1999/xlink" x="0px" y="0px"
	 viewBox="86.7 117.9 226.6 164.2" enable-background="new 86.7 117.9 226.6 164.2" xml:space="preserve">
<g>
	<g>
		<path fill="#FF6347" d="M297.7,149.1H102.3c-8.6,0-15.6-7-15.6-15.6s7-15.6,15.6-15.6h195.3c8.6,0,15.6,7,15.6,15.6
			S306.3,149.1,297.7,149.1z"/>
	</g>
	<g>
		<path fill="#FF6347" d="M297.7,282.1H102.3c-8.6,0-15.6-7-15.6-15.6s7-15.6,15.6-15.6h195.3c8.6,0,15.6,7,15.6,15.6
			S306.3,282.1,297.7,282.1z"/>
	</g>
	<g>
		<path fill="#FF6347" d="M297.7,215.6H102.3c-8.6,0-15.6-7-15.6-15.6s7-15.6,15.6-15.6h195.3c8.6,0,15.6,7,15.6,15.6
			S306.3,215.6,297.7,215.6z"/>
	</g>
</g>
</svg>
