<?xml version="1.0" encoding="utf-8"?>
<!-- Generator: Adobe Illustrator 18.0.0, SVG Export Plug-In . SVG Version: 6.00 Build 0)  -->
<!DOCTYPE svg PUBLIC "-//W3C//DTD SVG 1.1//EN" "http://www.w3.org/Graphics/SVG/1.1/DTD/svg11.dtd">
<svg version="1.1" id="Capa_1" xmlns="http://www.w3.org/2000/svg" xmlns:xlink="http://www.w3.org/1999/xlink" x="0px" y="0px"
	 viewBox="0 0 32 30" enable-background="new 0 0 32 30" xml:space="preserve">
<g>
	<g>
		<path fill="#9A9A9A" d="M31,30H1c-0.6,0-1-0.4-1-1V6c0-0.6,0.4-1,1-1h30c0.6,0,1,0.4,1,1v23C32,29.6,31.6,30,31,30z M2,28h28V7H2
			V28z"/>
	</g>
	<g>
		<path fill="#9A9A9A" d="M31,15H1c-0.6,0-1-0.4-1-1c0-0.6,0.4-1,1-1h30c0.6,0,1,0.4,1,1C32,14.6,31.6,15,31,15z"/>
	</g>
	<g>
		<path fill="#9A9A9A" d="M21,7c-0.6,0-1-0.4-1-1c0-2.2-1.8-4-4-4c-2.2,0-4,1.8-4,4c0,0.6-0.4,1-1,1c-0.6,0-1-0.4-1-1
			c0-3.3,2.7-6,6-6c3.3,0,6,2.7,6,6C22,6.6,21.6,7,21,7z"/>
	</g>
	<g>
		<path fill="#9A9A9A" d="M16,18c-2.2,0-4-1.8-4-4c0-0.6,0.4-1,1-1c0.6,0,1,0.4,1,1c0,1.1,0.9,2,2,2c1.1,0,2-0.9,2-2
			c0-0.6,0.4-1,1-1c0.6,0,1,0.4,1,1C20,16.2,18.2,18,16,18z"/>
	</g>
</g>
<g>
</g>
<g>
</g>
<g>
</g>
<g>
</g>
<g>
</g>
<g>
</g>
<g>
</g>
<g>
</g>
<g>
</g>
<g>
</g>
<g>
</g>
<g>
</g>
<g>
</g>
<g>
</g>
<g>
</g>
</svg>
