<?xml version="1.0" encoding="utf-8"?>
<!-- Generator: Adobe Illustrator 18.0.0, SVG Export Plug-In . SVG Version: 6.00 Build 0)  -->
<!DOCTYPE svg PUBLIC "-//W3C//DTD SVG 1.1//EN" "http://www.w3.org/Graphics/SVG/1.1/DTD/svg11.dtd">
<svg version="1.1" id="Capa_1" xmlns="http://www.w3.org/2000/svg" xmlns:xlink="http://www.w3.org/1999/xlink" x="0px" y="0px"
	 viewBox="0 0 32 32" enable-background="new 0 0 32 32" xml:space="preserve">
<g>
	<g>
		<path fill="#9A9A9A" d="M27,23.9H5c-2.8,0-5-2.2-5-4.9V6.9C0,4.2,2.2,2,5,2h22c2.8,0,5,2.2,5,4.9V19C32,21.7,29.8,23.9,27,23.9z
			 M5,4C3.3,4,2,5.3,2,6.9V19c0,1.6,1.3,2.9,3,2.9h22c1.7,0,3-1.3,3-2.9V6.9C30,5.3,28.6,4,27,4H5z"/>
	</g>
	<g>
		<path fill="#9A9A9A" d="M15.9,30c-0.6,0-1-0.4-1-1v-5.4c0-0.6,0.4-1,1-1c0.6,0,1,0.4,1,1V29C16.9,29.5,16.4,30,15.9,30z"/>
	</g>
	<g>
		<path fill="#9A9A9A" d="M16,3.9c-0.6,0-1-0.4-1-1V1c0-0.6,0.4-1,1-1c0.6,0,1,0.4,1,1v1.9C17,3.5,16.6,3.9,16,3.9z"/>
	</g>
	<g>
		<path fill="#9A9A9A" d="M21.2,32c-0.3,0-0.5-0.1-0.7-0.3l-5.3-5.2c-0.4-0.4-0.4-1,0-1.4c0.4-0.4,1-0.4,1.4,0l5.3,5.2
			c0.4,0.4,0.4,1,0,1.4C21.7,31.9,21.4,32,21.2,32z"/>
	</g>
	<g>
		<path fill="#9A9A9A" d="M10.5,32c-0.3,0-0.5-0.1-0.7-0.3c-0.4-0.4-0.4-1,0-1.4l5.3-5.2c0.4-0.4,1-0.4,1.4,0c0.4,0.4,0.4,1,0,1.4
			l-5.3,5.2C11,31.9,10.8,32,10.5,32z"/>
	</g>
	<g>
		<path fill="#9A9A9A" d="M7,19.1c-0.2,0-0.5-0.1-0.7-0.2c-0.4-0.4-0.5-1-0.1-1.4l6.2-7.1c0.4-0.4,1-0.5,1.4-0.1l5.1,4.4l5.3-6.3
			c0.4-0.4,1-0.5,1.4-0.1c0.4,0.4,0.5,1,0.1,1.4l-6,7c-0.2,0.2-0.4,0.3-0.7,0.3c-0.3,0-0.5-0.1-0.7-0.2l-5.1-4.4l-5.5,6.3
			C7.6,18.9,7.3,19.1,7,19.1z"/>
	</g>
</g>
<g>
</g>
<g>
</g>
<g>
</g>
<g>
</g>
<g>
</g>
<g>
</g>
<g>
</g>
<g>
</g>
<g>
</g>
<g>
</g>
<g>
</g>
<g>
</g>
<g>
</g>
<g>
</g>
<g>
</g>
</svg>
